<!DOCTYPE svg PUBLIC "-//W3C//DTD SVG 1.1//EN" "http://www.w3.org/Graphics/SVG/1.1/DTD/svg11.dtd">
<!-- Uploaded to: SVG Repo, www.svgrepo.com, Transformed by: SVG Repo Mixer Tools -->
<svg fill="#ffffff" width="100px" height="100px" viewBox="-0.72 -0.72 25.44 25.44" id="billiard-ball" data-name="Flat Color" xmlns="http://www.w3.org/2000/svg" class="icon flat-color" stroke="#ffffff" stroke-width="0.00024000000000000003" transform="rotate(0)">
<g id="SVGRepo_bgCarrier" stroke-width="0"/>
<g id="SVGRepo_tracerCarrier" stroke-linecap="round" stroke-linejoin="round" stroke="#5C8984" stroke-width="1.104">
<circle id="primary" cx="12" cy="12" r="10" style="fill: #374259;"/>
<path id="secondary" d="M12,18a4,4,0,0,1-2.4-7.2A3,3,0,0,1,9,9a3,3,0,0,1,6,0,3,3,0,0,1-.6,1.8A4,4,0,0,1,12,18Zm0-6a2,2,0,1,0,2,2A2,2,0,0,0,12,12Zm0-4a1,1,0,1,0,1,1A1,1,0,0,0,12,8Z" style="fill: #5C8984;"/>
</g>
<g id="SVGRepo_iconCarrier">
<circle id="primary" cx="12" cy="12" r="10" style="fill: #374259;"/>
<path id="secondary" d="M12,18a4,4,0,0,1-2.4-7.2A3,3,0,0,1,9,9a3,3,0,0,1,6,0,3,3,0,0,1-.6,1.8A4,4,0,0,1,12,18Zm0-6a2,2,0,1,0,2,2A2,2,0,0,0,12,12Zm0-4a1,1,0,1,0,1,1A1,1,0,0,0,12,8Z" style="fill: #5C8984;"/>
</g>
</svg>